<svg xmlns="http://www.w3.org/2000/svg" viewBox="0 0 256 256" width="256" height="256"><defs><linearGradient id="g" x1="0" y1="0" x2="0" y2="1">
      <stop offset="0" stop-color="#F9EDC8"/><stop offset="45%" stop-color="#D9B978"/><stop offset="100%" stop-color="#A8802F"/>
    </linearGradient></defs><rect width="256" height="256" rx="56" fill="#0B0F1A"/><circle cx="46" cy="128" r="21" fill="none" stroke="url(#g)" stroke-width="2.4" opacity=".42"/><path fill="url(#g)" d="M46 107 A21,21 0 0 0 46 149 A16.0,21 0 0 1 46 107 Z"/><circle cx="100" cy="128" r="21" fill="none" stroke="url(#g)" stroke-width="2.4" opacity=".42"/><path fill="url(#g)" d="M100 107 A21,21 0 0 0 100 149 Z"/><circle cx="154" cy="128" r="21" fill="none" stroke="url(#g)" stroke-width="2.4" opacity=".42"/><path fill="url(#g)" d="M154 107 A21,21 0 0 0 154 149 A14.3,21 0 0 0 154 107 Z"/><circle cx="208" cy="128" r="21" fill="none" stroke="url(#g)" stroke-width="2.4" opacity=".42"/><circle cx="208" cy="128" r="21" fill="url(#g)"/></svg>